<svg width="100" height="100" viewBox="0 0 100 100" fill="none" xmlns="http://www.w3.org/2000/svg">
<rect width="100" height="100" fill="#DDDDDD"/>
<path d="M50 35C52.75 35 55 37.25 55 40C55 42.75 52.75 45 50 45C47.25 45 45 42.75 45 40C45 37.25 47.25 35 50 35ZM50 60C56.75 60 64.5 63.225 65 65H35C35.575 63.2 43.275 60 50 60ZM50 30C44.475 30 40 34.475 40 40C40 45.525 44.475 50 50 50C55.525 50 60 45.525 60 40C60 34.475 55.525 30 50 30ZM50 55C43.325 55 30 58.35 30 65V70H70V65C70 58.35 56.675 55 50 55Z" fill="white"/>
</svg>
