<svg width="140" height="24" viewBox="0 0 140 24" fill="none" xmlns="http://www.w3.org/2000/svg">
<path d="M122.563 22.8337V22.5436H124.623V11.8666L122.563 10.4449V10.3288L128.917 7.60156V10.9381C129.468 8.79112 131.267 7.80466 133.414 7.80466C136.199 7.80466 137.94 9.51646 137.94 13.2012V22.5436H140V22.8337H131.876V22.5436H133.646V13.1722C133.646 10.3288 132.776 9.19731 131.354 9.19731C129.758 9.19731 128.917 10.4159 128.917 13.1722V22.5436H130.687V22.8337H122.563Z" fill="black"/>
<path d="M113.123 23.2109C108.161 23.2109 105.202 19.6132 105.202 15.4643C105.202 11.2573 108.277 7.80469 113.152 7.80469C118.113 7.80469 121.072 11.4314 121.072 15.5803C121.072 19.7873 117.997 23.2109 113.123 23.2109ZM114.341 22.8337C115.589 22.8337 116.894 22.0213 116.894 19.178C116.894 18.0755 116.633 16.4797 116.082 14.4488C115.066 10.677 113.848 8.21088 111.933 8.21088C110.685 8.21088 109.38 8.99424 109.38 11.8666C109.38 12.9691 109.67 14.5358 110.221 16.5668C111.237 20.3676 112.426 22.8337 114.341 22.8337Z" fill="black"/>
<path d="M99.7375 5.25146C98.2579 5.25146 97.0973 4.09092 97.0973 2.61122C97.0973 1.16054 98.2579 0 99.7375 0C101.188 0 102.378 1.16054 102.378 2.61122C102.378 4.09092 101.188 5.25146 99.7375 5.25146ZM101.972 7.60156V22.5436H104.032V22.8337H95.6176V22.5436H97.6776V11.8666L95.6176 10.4449V10.3288L101.972 7.60156Z" fill="black"/>
<path d="M90.0203 18.5105C90.0203 20.6866 91.0648 21.3539 92.3704 21.3539C93.2698 21.3539 94.3433 21.0347 95.0396 20.5125L95.1557 20.6866C94.0242 21.9632 91.9932 23.1237 89.7592 23.1237C87.7282 23.1237 85.7263 22.5434 85.7263 19.3229V10.5318H82.7669V10.3867L89.8752 4.78711H90.0203V8.26874H95.794L94.2273 10.5318H90.0203V18.5105Z" fill="black"/>
<path d="M75.2857 23.2109C70.9917 23.2109 67.8873 20.2225 67.8873 15.5513C67.8873 10.7351 71.8041 7.80469 76.0981 7.80469C78.7384 7.80469 81.2045 9.05227 81.2045 11.0252C81.2045 12.4469 79.7828 13.2883 77.7229 12.9691C77.6358 9.69057 76.4463 8.23989 74.7345 8.23989C72.8196 8.23989 71.63 10.2128 71.63 13.1722C71.63 16.944 73.5449 20.1645 77.1426 20.1645C78.9124 20.1645 81.2045 19.4101 82.0169 15.7834H82.278C81.7558 21.296 78.8834 23.2109 75.2857 23.2109Z" fill="black"/>
<path d="M58.9413 23.2109C54.7344 23.2109 51.3688 20.3676 51.3688 15.5803C51.3688 11.0832 54.9955 7.80469 58.8253 7.80469C61.5235 7.80469 64.57 8.87819 65.5564 12.5919H55.1405C55.1115 12.824 55.1115 13.0561 55.1115 13.3173C55.1115 17.3211 57.2295 20.1645 60.6821 20.1645C62.6551 20.1645 65.2083 19.3811 65.9916 15.7834H66.2237C65.6725 21.296 62.6551 23.2109 58.9413 23.2109ZM58.5641 8.09482C56.7943 8.09482 55.4307 9.45846 55.1696 12.2728H58.6802C60.5081 12.2728 61.0593 11.8086 61.0593 10.619C61.0593 9.57452 60.305 8.09482 58.5641 8.09482Z" fill="black"/>
<path d="M41.8047 22.8341V22.544H43.8647V1.13193H41.8047V0.841797H48.1296V22.544H50.1896V22.8341H41.8047Z" fill="black"/>
<path d="M32.908 22.8341V22.544H34.9679V1.13193H32.908V0.841797H39.2329V22.544H41.2929V22.8341H32.908Z" fill="black"/>
<path d="M23.7868 23.2109C18.8255 23.2109 15.8661 19.6132 15.8661 15.4643C15.8661 11.2573 18.9415 7.80469 23.8158 7.80469C28.7771 7.80469 31.7365 11.4314 31.7365 15.5803C31.7365 19.7873 28.6611 23.2109 23.7868 23.2109ZM25.0054 22.8337C26.253 22.8337 27.5586 22.0213 27.5586 19.178C27.5586 18.0755 27.2974 16.4797 26.7462 14.4488C25.7307 10.677 24.5121 8.21088 22.5972 8.21088C21.3497 8.21088 20.044 8.99424 20.044 11.8666C20.044 12.9691 20.3342 14.5358 20.8854 16.5668C21.9009 20.3676 23.0905 22.8337 25.0054 22.8337Z" fill="black"/>
<path d="M7.39846 23.2109C3.10445 23.2109 0 20.2225 0 15.5513C0 10.7351 3.91683 7.80469 8.21084 7.80469C10.8511 7.80469 13.3172 9.05227 13.3172 11.0252C13.3172 12.4469 11.8956 13.2883 9.8356 12.9691C9.74856 9.69057 8.55901 8.23989 6.8472 8.23989C4.93231 8.23989 3.74275 10.2128 3.74275 13.1722C3.74275 16.944 5.65765 20.1645 9.25533 20.1645C11.0252 20.1645 13.3172 19.4101 14.1296 15.7834H14.3907C13.8685 21.296 10.9961 23.2109 7.39846 23.2109Z" fill="black"/>
</svg>
