<svg width="89" height="31" viewBox="0 0 89 31" fill="none" xmlns="http://www.w3.org/2000/svg">
<g clip-path="url(#clip0_874_2611)">
<path d="M12.1211 16.1307C12.1211 20.7909 10.4227 22.4697 8.81312 22.4697C7.75887 22.4697 6.67581 21.6032 6.41195 20.1996V12.0019C6.67581 10.4489 7.84643 9.61189 8.72441 9.61189C10.5979 9.61189 12.1211 11.5893 12.1211 16.1307ZM17.0985 15.9508C17.0985 10.8134 13.8194 8.03538 10.7454 8.03538C8.72556 8.03538 7.08599 9.34973 6.41195 11.052V7.82612L0 10.6347V10.7546L2.07856 12.2182V30.5521H0V31.0012H9.19335V30.5521H6.41195V21.1495C7.02723 22.7918 8.6668 23.8981 10.5403 23.8981C13.8482 23.8981 17.0985 20.9108 17.0985 15.952M25.5395 2.68865C25.5395 1.19443 24.3389 0 22.8756 0C21.4124 0 20.2118 1.19443 20.2118 2.68865C20.2118 4.18287 21.3824 5.40669 22.8756 5.40669C24.3689 5.40669 25.5395 4.21226 25.5395 2.68865ZM18.7174 23.5089H27.2079V23.0598H25.1293V7.82612L18.7174 10.6347V10.7546L20.7959 12.2182V23.061H18.7174V23.5101V23.5089ZM43.0586 8.86067C43.0586 7.42523 41.9179 6.26137 40.5111 6.26137C39.1043 6.26137 37.9636 7.42523 37.9636 8.86067C37.9636 10.2961 39.1043 11.46 40.5111 11.46C41.9179 11.46 43.0586 10.2961 43.0586 8.86067ZM40.359 23.5089H45.658L38.8911 14.8763H34.0047V0.750047H27.5927V1.19914H29.6713V23.5101H34.0047V15.4089L40.3579 23.5101L40.359 23.5089ZM55.6348 23.5089H63.8326V23.0598H61.7541V13.5914C61.7541 9.79764 59.997 8.03538 57.1868 8.03538C55.0207 8.03538 53.2048 9.05112 52.6483 11.2613V7.82612L46.2364 10.6347V10.7546L48.3149 12.2182V23.061H46.2364V23.5101H54.4342V23.061H52.6483V13.6455C52.6483 10.8075 53.4975 9.55311 55.1071 9.55311C56.5416 9.55311 57.4207 10.6347 57.4207 13.562V23.061H55.6348V23.5101V23.5089ZM71.5639 2.68865C71.5639 1.19443 70.3633 0 68.9 0C67.4367 0 66.2361 1.19443 66.2361 2.68865C66.2361 4.18287 67.4079 5.40669 68.9 5.40669C70.3921 5.40669 71.5639 4.21226 71.5639 2.68865ZM64.7417 23.5089H73.2322V23.0598H71.1537V7.82612L64.7417 10.6347V10.7546L66.8203 12.2182V23.061H64.7417V23.5101V23.5089ZM78.1728 13.562C78.1728 10.5148 79.3734 8.56676 81.3056 8.56676C83.0328 8.56676 84.2334 9.97751 84.3209 13.3527C86.3995 13.6819 87.834 12.8155 87.834 11.3518C87.834 9.32034 85.3452 8.01892 82.6814 8.01892C78.348 8.01892 74.396 11.052 74.396 16.0108C74.396 20.9696 77.5288 23.8969 81.8622 23.8969C85.4927 23.8969 88.4723 21.9254 89 16.2495H88.6543C87.834 19.9832 85.5215 20.7603 83.7356 20.7603C80.1051 20.7603 78.1728 17.4451 78.1728 13.5608" fill="black"/>
</g>
<defs>
<clipPath id="clip0_874_2611">
<rect width="89" height="31" fill="white"/>
</clipPath>
</defs>
</svg>
