<svg width="20" height="20" viewBox="0 0 20 20" fill="none" xmlns="http://www.w3.org/2000/svg">
<path fill-rule="evenodd" clip-rule="evenodd" d="M14.2989 8.08C14.2989 11.4821 11.5295 14.24 8.11341 14.24C4.69727 14.24 1.92794 11.4821 1.92794 8.08C1.92794 4.67793 4.69727 1.92 8.11341 1.92C11.5295 1.92 14.2989 4.67793 14.2989 8.08ZM13.082 14.4681C11.7092 15.5287 9.98534 16.16 8.11341 16.16C3.6325 16.16 0 12.5425 0 8.08C0 3.61754 3.6325 0 8.11341 0C12.5943 0 16.2268 3.61754 16.2268 8.08C16.2268 9.98635 15.5639 11.7385 14.4551 13.1203L20 18.6424L18.6367 20L13.082 14.4681Z" fill="black"/>
</svg>
